# Blender v2.78 (sub 0) OBJ File: ''
# www.blender.org
o Sphere_Sphere.001
v 0.000000 0.923880 -0.382683
v -0.000000 1.000000 -0.000000
v 0.270598 0.923880 -0.270598
v 0.500000 0.707107 -0.500000
v 0.653281 0.382683 -0.653282
v 0.707107 -0.000000 -0.707107
v 0.653281 -0.382684 -0.653282
v 0.500000 -0.707107 -0.500000
v 0.270598 -0.923880 -0.270598
v 0.382683 0.923880 -0.000000
v 0.707107 0.707107 -0.000000
v 0.923879 0.382683 -0.000000
v 1.000000 -0.000000 -0.000000
v 0.923879 -0.382684 -0.000000
v 0.707107 -0.707107 -0.000000
v 0.382683 -0.923880 -0.000000
v 0.270598 0.923880 0.270598
v 0.500000 0.707107 0.500000
v 0.653281 0.382683 0.653281
v 0.707107 -0.000000 0.707106
v 0.653281 -0.382684 0.653281
v 0.500000 -0.707107 0.500000
v 0.270598 -0.923880 0.270598
v 0.000000 -1.000000 -0.000000
v 0.000000 0.923880 0.382683
v 0.000000 0.707107 0.707106
v 0.000000 0.382683 0.923879
v 0.000000 -0.000000 1.000000
v 0.000000 -0.382684 0.923879
v 0.000000 -0.707107 0.707106
v 0.000000 -0.923880 0.382683
v -0.270598 0.923880 0.270598
v -0.500000 0.707107 0.500000
v -0.653281 0.382683 0.653281
v -0.707107 -0.000000 0.707106
v -0.653281 -0.382684 0.653281
v -0.500000 -0.707107 0.500000
v -0.270598 -0.923880 0.270598
v -0.382683 0.923880 -0.000000
v -0.707107 0.707107 -0.000000
v -0.923879 0.382683 -0.000000
v -1.000000 -0.000000 -0.000000
v -0.923879 -0.382684 -0.000000
v -0.707107 -0.707107 -0.000000
v -0.382683 -0.923880 -0.000000
v -0.270598 0.923880 -0.270598
v -0.500000 0.707107 -0.500000
v -0.653281 0.382683 -0.653281
v -0.707107 -0.000000 -0.707107
v -0.653281 -0.382684 -0.653281
v -0.500000 -0.707107 -0.500000
v -0.270598 -0.923880 -0.270598
v -0.000000 0.707107 -0.707107
v -0.000000 0.382683 -0.923879
v 0.000000 -0.000000 -1.000000
v -0.000000 -0.382684 -0.923879
v -0.000000 -0.707107 -0.707107
v -0.000000 -0.923880 -0.382683
vt 1.0000 0.2500
vt 0.8750 0.1250
vt 1.0000 0.1250
vt 1.0000 0.5000
vt 0.8750 0.3750
vt 1.0000 0.3750
vt 1.0000 0.6250
vt 0.8750 0.7500
vt 0.8750 0.6250
vt 1.0000 0.8750
vt 0.7494 0.9962
vt 0.8750 0.8750
vt 0.7508 0.0064
vt 0.8750 0.2500
vt 0.8750 0.5000
vt 1.0000 0.7500
vt 0.7500 0.1250
vt 0.7500 0.2500
vt 0.7500 0.5000
vt 0.7500 0.7500
vt 0.7500 0.3750
vt 0.7500 0.6250
vt 0.7500 0.8750
vt 0.6250 0.5000
vt 0.6250 0.7500
vt 0.6250 0.1250
vt 0.6250 0.3750
vt 0.6250 0.6250
vt 0.6250 0.8750
vt 0.6250 0.2500
vt 0.5000 0.1250
vt 0.5000 0.3750
vt 0.5000 0.6250
vt 0.5000 0.8750
vt 0.2508 0.0064
vt 0.5000 0.2500
vt 0.5000 0.5000
vt 0.5000 0.7500
vt 0.3750 0.6250
vt 0.2494 0.9962
vt 0.3750 0.8750
vt 0.3750 0.1250
vt 0.3750 0.3750
vt 0.3750 0.2500
vt 0.3750 0.5000
vt 0.3750 0.7500
vt 0.2500 0.1250
vt 0.2500 0.2500
vt 0.2500 0.6250
vt 0.2500 0.5000
vt 0.2500 0.7500
vt 0.2500 0.3750
vt 0.2500 0.8750
vt 0.1250 0.7500
vt 0.1250 0.2500
vt 0.1250 0.1250
vt 0.1250 0.3750
vt 0.1250 0.6250
vt 0.1250 0.8750
vt 0.1250 0.5000
vt 0.0000 0.1250
vt 0.0000 0.3750
vt 0.0000 0.6250
vt 0.0000 0.8750
vt 0.0000 0.2500
vt 0.0000 0.5000
vt 0.0000 0.7500
vn 0.0000 -0.6838 -0.7296
vn 0.2988 -0.9063 -0.2988
vn 0.0000 -0.9063 -0.4226
vn 0.0000 0.0000 -1.0000
vn 0.6578 -0.3668 -0.6578
vn 0.0000 -0.3668 -0.9303
vn 0.0000 0.3668 -0.9303
vn 0.5159 0.6838 -0.5159
vn 0.6578 0.3668 -0.6578
vn 0.0000 0.9063 -0.4226
vn 0.0000 1.0000 0.0000
vn 0.2988 0.9063 -0.2988
vn 0.0000 -1.0000 0.0000
vn 0.5159 -0.6838 -0.5159
vn 0.7071 0.0000 -0.7071
vn 0.0000 0.6838 -0.7296
vn 0.4226 -0.9063 0.0000
vn 0.7296 -0.6838 0.0000
vn 1.0000 0.0000 0.0000
vn 0.7296 0.6838 0.0000
vn 0.9303 -0.3668 0.0000
vn 0.9303 0.3668 0.0000
vn 0.4226 0.9063 0.0000
vn 0.7071 0.0000 0.7071
vn 0.5159 0.6838 0.5159
vn 0.2988 -0.9063 0.2988
vn 0.6578 -0.3668 0.6578
vn 0.6578 0.3668 0.6578
vn 0.2988 0.9063 0.2988
vn 0.5159 -0.6838 0.5159
vn 0.0000 -0.9063 0.4226
vn 0.0000 -0.3668 0.9303
vn 0.0000 0.3668 0.9303
vn 0.0000 0.9063 0.4226
vn 0.0000 -0.6838 0.7296
vn 0.0000 0.0000 1.0000
vn 0.0000 0.6838 0.7296
vn -0.6578 0.3668 0.6578
vn -0.2988 0.9063 0.2988
vn -0.2988 -0.9063 0.2988
vn -0.6578 -0.3668 0.6578
vn -0.5159 -0.6838 0.5159
vn -0.7071 0.0000 0.7071
vn -0.5159 0.6838 0.5159
vn -0.4226 -0.9063 0.0000
vn -0.7296 -0.6838 0.0000
vn -0.9303 0.3668 0.0000
vn -1.0000 0.0000 0.0000
vn -0.7296 0.6838 0.0000
vn -0.9303 -0.3668 0.0000
vn -0.4226 0.9063 0.0000
vn -0.5159 0.6838 -0.5159
vn -0.5159 -0.6838 -0.5159
vn -0.2988 -0.9063 -0.2988
vn -0.6578 -0.3668 -0.6578
vn -0.6578 0.3668 -0.6578
vn -0.2988 0.9063 -0.2988
vn -0.7071 0.0000 -0.7071
s 1
f 57/1/1 9/2/2 58/3/3
f 55/4/4 7/5/5 56/6/6
f 54/7/7 4/8/8 5/9/9
f 1/10/10 2/11/11 3/12/12
f 24/13/13 58/3/3 9/2/2
f 56/6/6 8/14/14 57/1/1
f 54/7/7 6/15/15 55/4/4
f 53/16/16 3/12/12 4/8/8
f 24/13/13 9/2/2 16/17/17
f 7/5/5 15/18/18 8/14/14
f 5/9/9 13/19/19 6/15/15
f 3/12/12 11/20/20 4/8/8
f 9/2/2 15/18/18 16/17/17
f 6/15/15 14/21/21 7/5/5
f 4/8/8 12/22/22 5/9/9
f 3/12/12 2/11/11 10/23/23
f 12/22/22 20/24/24 13/19/19
f 10/23/23 18/25/25 11/20/20
f 15/18/18 23/26/26 16/17/17
f 13/19/19 21/27/27 14/21/21
f 11/20/20 19/28/28 12/22/22
f 10/23/23 2/11/11 17/29/29
f 24/13/13 16/17/17 23/26/26
f 14/21/21 22/30/30 15/18/18
f 22/30/30 31/31/31 23/26/26
f 20/24/24 29/32/32 21/27/27
f 18/25/25 27/33/33 19/28/28
f 17/29/29 2/11/11 25/34/34
f 24/35/13 23/26/26 31/31/31
f 22/30/30 29/32/32 30/36/35
f 19/28/28 28/37/36 20/24/24
f 17/29/29 26/38/37 18/25/25
f 26/38/37 34/39/38 27/33/33
f 25/34/34 2/40/11 32/41/39
f 24/35/13 31/31/31 38/42/40
f 30/36/35 36/43/41 37/44/42
f 28/37/36 34/39/38 35/45/43
f 26/38/37 32/41/39 33/46/44
f 30/36/35 38/42/40 31/31/31
f 28/37/36 36/43/41 29/32/32
f 24/35/13 38/42/40 45/47/45
f 36/43/41 44/48/46 37/44/42
f 35/45/43 41/49/47 42/50/48
f 32/41/39 40/51/49 33/46/44
f 37/44/42 45/47/45 38/42/40
f 35/45/43 43/52/50 36/43/41
f 33/46/44 41/49/47 34/39/38
f 32/41/39 2/40/11 39/53/51
f 39/53/51 47/54/52 40/51/49
f 45/47/45 51/55/53 52/56/54
f 42/50/48 50/57/55 43/52/50
f 40/51/49 48/58/56 41/49/47
f 39/53/51 2/40/11 46/59/57
f 24/35/13 45/47/45 52/56/54
f 44/48/46 50/57/55 51/55/53
f 42/50/48 48/58/56 49/60/58
f 51/55/53 58/61/3 52/56/54
f 49/60/58 56/62/6 50/57/55
f 47/54/52 54/63/7 48/58/56
f 46/59/57 2/40/11 1/64/10
f 24/35/13 52/56/54 58/61/3
f 50/57/55 57/65/1 51/55/53
f 48/58/56 55/66/4 49/60/58
f 46/59/57 53/67/16 47/54/52
f 57/1/1 8/14/14 9/2/2
f 55/4/4 6/15/15 7/5/5
f 54/7/7 53/16/16 4/8/8
f 56/6/6 7/5/5 8/14/14
f 54/7/7 5/9/9 6/15/15
f 53/16/16 1/10/10 3/12/12
f 7/5/5 14/21/21 15/18/18
f 5/9/9 12/22/22 13/19/19
f 3/12/12 10/23/23 11/20/20
f 9/2/2 8/14/14 15/18/18
f 6/15/15 13/19/19 14/21/21
f 4/8/8 11/20/20 12/22/22
f 12/22/22 19/28/28 20/24/24
f 10/23/23 17/29/29 18/25/25
f 15/18/18 22/30/30 23/26/26
f 13/19/19 20/24/24 21/27/27
f 11/20/20 18/25/25 19/28/28
f 14/21/21 21/27/27 22/30/30
f 22/30/30 30/36/35 31/31/31
f 20/24/24 28/37/36 29/32/32
f 18/25/25 26/38/37 27/33/33
f 22/30/30 21/27/27 29/32/32
f 19/28/28 27/33/33 28/37/36
f 17/29/29 25/34/34 26/38/37
f 26/38/37 33/46/44 34/39/38
f 30/36/35 29/32/32 36/43/41
f 28/37/36 27/33/33 34/39/38
f 26/38/37 25/34/34 32/41/39
f 30/36/35 37/44/42 38/42/40
f 28/37/36 35/45/43 36/43/41
f 36/43/41 43/52/50 44/48/46
f 35/45/43 34/39/38 41/49/47
f 32/41/39 39/53/51 40/51/49
f 37/44/42 44/48/46 45/47/45
f 35/45/43 42/50/48 43/52/50
f 33/46/44 40/51/49 41/49/47
f 39/53/51 46/59/57 47/54/52
f 45/47/45 44/48/46 51/55/53
f 42/50/48 49/60/58 50/57/55
f 40/51/49 47/54/52 48/58/56
f 44/48/46 43/52/50 50/57/55
f 42/50/48 41/49/47 48/58/56
f 51/55/53 57/65/1 58/61/3
f 49/60/58 55/66/4 56/62/6
f 47/54/52 53/67/16 54/63/7
f 50/57/55 56/62/6 57/65/1
f 48/58/56 54/63/7 55/66/4
f 46/59/57 1/64/10 53/67/16
